<svg width="1600" height="900" viewBox="0 0 1600 900" fill="none" xmlns="http://www.w3.org/2000/svg">
  <rect width="1600" height="900" rx="48" fill="url(#bg)"/>
  <circle cx="1260" cy="180" r="180" fill="url(#glow1)" fill-opacity="0.7"/>
  <circle cx="320" cy="760" r="220" fill="url(#glow2)" fill-opacity="0.7"/>
  <rect x="164" y="166" width="1272" height="568" rx="40" fill="white" fill-opacity="0.08" stroke="white" stroke-opacity="0.18" stroke-width="2"/>
  <rect x="244" y="250" width="320" height="400" rx="28" fill="white" fill-opacity="0.08"/>
  <rect x="618" y="250" width="738" height="112" rx="28" fill="white" fill-opacity="0.08"/>
  <rect x="618" y="394" width="738" height="112" rx="28" fill="white" fill-opacity="0.08"/>
  <rect x="618" y="538" width="738" height="112" rx="28" fill="white" fill-opacity="0.08"/>
  <path d="M404 330C404 304.49 424.49 284 450 284H484C509.51 284 530 304.49 530 330V364C530 389.51 509.51 410 484 410H450C424.49 410 404 389.51 404 364V330Z" fill="white" fill-opacity="0.92"/>
  <path d="M345 462C345 434.386 367.386 412 395 412H539C566.614 412 589 434.386 589 462V596C589 623.614 566.614 646 539 646H395C367.386 646 345 623.614 345 596V462Z" fill="#0F172A" fill-opacity="0.7"/>
  <path d="M395 476H539" stroke="#A5B4FC" stroke-width="10" stroke-linecap="round"/>
  <path d="M395 522H495" stroke="#C7D2FE" stroke-width="10" stroke-linecap="round"/>
  <path d="M395 568H459" stroke="#C7D2FE" stroke-width="10" stroke-linecap="round"/>
  <circle cx="1158" cy="306" r="24" fill="#F8FAFC"/>
  <circle cx="1058" cy="450" r="24" fill="#F8FAFC"/>
  <circle cx="1238" cy="590" r="24" fill="#F8FAFC"/>
  <circle cx="858" cy="590" r="24" fill="#F8FAFC"/>
  <circle cx="938" cy="306" r="24" fill="#F8FAFC"/>
  <path d="M938 306L1158 306L1238 590L858 590L1058 450L1238 590" stroke="white" stroke-opacity="0.72" stroke-width="8" stroke-linecap="round" stroke-linejoin="round"/>
  <path d="M982 273L1114 273" stroke="#F8FAFC" stroke-width="14" stroke-linecap="round"/>
  <path d="M982 339L1084 339" stroke="#E2E8F0" stroke-width="14" stroke-linecap="round"/>
  <path d="M706 294H838" stroke="#F8FAFC" stroke-opacity="0.88" stroke-width="18" stroke-linecap="round"/>
  <path d="M706 438H1274" stroke="#E2E8F0" stroke-opacity="0.72" stroke-width="18" stroke-linecap="round"/>
  <path d="M706 582H1180" stroke="#E2E8F0" stroke-opacity="0.72" stroke-width="18" stroke-linecap="round"/>
  <defs>
    <linearGradient id="bg" x1="202" y1="80" x2="1390" y2="856" gradientUnits="userSpaceOnUse">
      <stop stop-color="#1D4ED8"/>
      <stop offset="0.52" stop-color="#5B21B6"/>
      <stop offset="1" stop-color="#0F172A"/>
    </linearGradient>
    <radialGradient id="glow1" cx="0" cy="0" r="1" gradientUnits="userSpaceOnUse" gradientTransform="translate(1260 180) rotate(90) scale(180)">
      <stop stop-color="#F9A8D4"/>
      <stop offset="1" stop-color="#F9A8D4" stop-opacity="0"/>
    </radialGradient>
    <radialGradient id="glow2" cx="0" cy="0" r="1" gradientUnits="userSpaceOnUse" gradientTransform="translate(320 760) rotate(90) scale(220)">
      <stop stop-color="#67E8F9"/>
      <stop offset="1" stop-color="#67E8F9" stop-opacity="0"/>
    </radialGradient>
  </defs>
</svg>
